# xmcd
#
# Track frame offsets: 
#        150
#        22017
#        37817
#        60655
#        77395
#        101822
#        120969
#        144697
#        159366
#        181492
#        208188
#        230427
#
# Disc length: 3137 seconds
#
# Revision: 0
# Processed by: cddbd v1.5.2PL0 Copyright (c) Steve Scherf et al.
# Submitted via: ExactAudioCopy v0.99pb3
#
DISCID=970c3f0c
DTITLE=Madame Perdu - Madame Perdu
DYEAR=2007
DGENRE=Gypsy ska
TTITLE0=Jou opeens in mijn gedachten
TTITLE1=Als ik jou zie
TTITLE2=Dag vader moeder
TTITLE3=Huis boom beest
TTITLE4=Laat ze maar
TTITLE5=Meisje van de slagerij
TTITLE6=Heer ontferm u
TTITLE7=Als dat je dan verlaat
TTITLE8=Als ik dood ga
TTITLE9=Ze zegt
TTITLE10=In mijn dromen
TTITLE11=Dag dag doei
EXTD=
EXTT0=
EXTT1=
EXTT2=
EXTT3=
EXTT4=
EXTT5=
EXTT6=
EXTT7=
EXTT8=
EXTT9=
EXTT10=
EXTT11=
PLAYORDER=
